<?xml version="1.0" encoding="UTF-8" standalone="no"?>
<!-- Created with Inkscape (http://www.inkscape.org/) -->

<svg
   width="100mm"
   height="50mm"
   viewBox="0 0 100 49.999999"
   version="1.1"
   id="svg5"
   xmlns="http://www.w3.org/2000/svg"
   xmlns:svg="http://www.w3.org/2000/svg">
  <defs
     id="defs2" />
  <g
     id="layer1"
     transform="translate(-43.425267,-28.557048)">
    <g
       aria-label="NorthRussia"
       id="text236"
       style="font-size:19.7556px;line-height:0;font-family:'Franklin Gothic Heavy';-inkscape-font-specification:'Franklin Gothic Heavy, ';text-align:center;text-anchor:middle;stroke:#fbf198;stroke-width:5.734;stroke-linecap:round;stroke-opacity:0">
      <path
         d="m 61.725876,59.809538 -4.898922,-6.387203 v 6.256289 H 55.104407 V 49.577612 h 0.861274 l 4.768008,6.090924 v -6.090924 h 1.722546 v 10.231926 z"
         style="font-weight:bold;font-size:14.1111px;font-family:'Trebuchet MS';-inkscape-font-specification:'Trebuchet MS, Bold';fill:#fefefe"
         id="path1591" />
      <path
         d="m 63.937625,55.964814 q 0,-1.688096 0.971516,-2.749184 0.978406,-1.061089 2.576929,-1.061089 1.681206,0 2.611381,1.019748 0.930175,1.019747 0.930175,2.790525 0,1.763888 -0.950846,2.804306 -0.943955,1.040418 -2.59071,1.040418 -1.681205,0 -2.61827,-1.047309 -0.930175,-1.054198 -0.930175,-2.797415 z m 1.791448,0 q 0,2.439126 1.756997,2.439126 0.806152,0 1.274685,-0.633897 0.475423,-0.633897 0.475423,-1.805229 0,-2.404675 -1.750108,-2.404675 -0.806151,0 -1.281574,0.633897 -0.475423,0.633897 -0.475423,1.770778 z"
         style="font-weight:bold;font-size:14.1111px;font-family:'Trebuchet MS';-inkscape-font-specification:'Trebuchet MS, Bold';fill:#fefefe"
         id="path1593" />
      <path
         d="M 76.670687,53.897758 Q 76.209045,53.59459 75.65783,53.59459 q -0.599446,0 -1.067979,0.544325 -0.461642,0.544324 -0.461642,1.329806 v 4.203013 h -1.722547 v -7.379389 h 1.722547 v 0.675238 q 0.723469,-0.813042 1.922361,-0.813042 0.881944,0 1.350477,0.268718 z"
         style="font-weight:bold;font-size:14.1111px;font-family:'Trebuchet MS';-inkscape-font-specification:'Trebuchet MS, Bold';fill:#fefefe"
         id="path1595" />
      <path
         d="M 78.696403,53.677272 H 77.84202 v -1.384927 h 0.854383 v -1.50206 l 1.722546,-0.633898 v 2.135958 h 2.025715 v 1.384927 h -2.025715 v 3.231497 q 0,0.792372 0.248047,1.123101 0.248047,0.323838 0.868163,0.323838 0.620117,0 1.157552,-0.337619 v 1.584743 q -0.599447,0.206706 -1.708767,0.206706 -1.102429,0 -1.694985,-0.620117 -0.592556,-0.627007 -0.592556,-1.777668 z"
         style="font-weight:bold;font-size:14.1111px;font-family:'Trebuchet MS';-inkscape-font-specification:'Trebuchet MS, Bold';fill:#0077ac"
         id="path1597" />
      <path
         d="m 88.804304,59.671734 v -4.547523 q 0,-0.682128 -0.427192,-1.095539 -0.427191,-0.413411 -1.11621,-0.413411 -0.427191,0 -0.861273,0.234266 -0.434081,0.227376 -0.620117,0.523654 v 5.298553 H 84.029405 V 49.543161 l 1.750107,-0.413411 v 3.631128 q 0.668349,-0.606337 1.83968,-0.606337 1.384927,0 2.149738,0.771701 0.764811,0.764811 0.764811,2.197969 v 4.547523 z"
         style="font-weight:bold;font-size:14.1111px;font-family:'Trebuchet MS';-inkscape-font-specification:'Trebuchet MS, Bold';fill:#0077ac"
         id="path1599" />
      <path
         d="m 93.262948,50.088146 q 0,-0.202572 -0.03376,-0.347267 -0.03376,-0.144694 -0.120578,-0.236334 -0.08199,-0.09164 -0.231511,-0.135048 -0.149518,-0.04341 -0.381029,-0.04341 -0.318327,0 -0.815111,0.07235 l -0.05788,-0.42926 q 0.448553,-0.08199 0.979098,-0.16881 0.535369,-0.08682 1.094854,-0.159164 0.564308,-0.07235 1.128616,-0.115755 0.569131,-0.04823 1.090031,-0.04823 0.699356,0 1.297426,0.125402 0.59807,0.120579 1.036976,0.409967 0.438906,0.284566 0.689709,0.752411 0.250804,0.467845 0.250804,1.162378 0,0.641478 -0.212218,1.176847 -0.207396,0.530546 -0.593247,0.95016 -0.381029,0.419613 -0.926044,0.718648 -0.545015,0.299035 -1.215432,0.472668 0.501607,0.85852 0.911574,1.509645 0.409967,0.651124 0.75241,1.143085 0.342444,0.487137 0.627009,0.839227 0.284566,0.347266 0.535369,0.602893 0.197749,0.207395 0.371382,0.35209 0.173634,0.139871 0.332797,0.226687 0.163987,0.08682 0.327977,0.125402 0.16398,0.03858 0.34244,0.03858 0.19293,0 0.36656,-0.03858 0.17363,-0.03858 0.38103,-0.115755 l 0.13505,0.395497 q -0.61254,0.279743 -1.08521,0.414791 -0.47267,0.139871 -0.790997,0.139871 -0.159164,0 -0.303858,-0.03858 -0.144695,-0.03376 -0.284566,-0.106109 -0.139871,-0.07235 -0.279742,-0.18328 -0.139872,-0.115755 -0.299035,-0.270096 -0.26045,-0.24598 -0.602893,-0.665594 -0.342444,-0.424437 -0.776527,-1.056268 -0.429259,-0.636656 -0.954982,-1.504822 -0.525723,-0.868166 -1.157555,-2.006428 l 0.0096,-0.0627 q 0.853697,-0.03376 1.442121,-0.236334 0.588423,-0.202572 0.950159,-0.549838 0.366559,-0.347267 0.530546,-0.824758 0.163987,-0.482314 0.163987,-1.075561 0,-1.138262 -0.59807,-1.70257 -0.59807,-0.564308 -1.770094,-0.564308 -0.250804,0 -0.477491,0.01929 -0.226688,0.01929 -0.501607,0.05305 -0.0096,0.371382 -0.02894,0.993568 -0.01447,0.622186 -0.03858,1.432474 -0.01929,0.805465 -0.04823,1.770094 -0.02894,0.959806 -0.05788,2.011251 -0.02894,1.046623 -0.0627,2.155946 -0.03376,1.1045 -0.06752,2.204177 l -1.143085,0.144694 -0.08682,-0.0096 q 0.05788,-1.384243 0.106109,-2.623791 0.04823,-1.239548 0.07717,-2.411572 0.03376,-1.176847 0.05306,-2.324756 0.01929,-1.152731 0.01929,-2.358517 z"
         style="font-family:Gabriola;-inkscape-font-specification:'Gabriola, Normal';fill:#c91e2e"
         id="path1601" />
      <path
         d="m 103.23239,53.633157 q 0,0.327974 -0.0241,0.704179 -0.0193,0.371382 -0.053,0.757234 -0.0289,0.385851 -0.0675,0.771703 -0.0338,0.381028 -0.0675,0.723472 -0.0289,0.342443 -0.053,0.631831 -0.0193,0.284566 -0.0193,0.477492 0,0.573954 0.21704,0.839227 0.21705,0.265273 0.57878,0.265273 0.40997,0 0.83923,-0.438906 0.42926,-0.44373 0.81993,-1.292603 0.39068,-0.848873 0.6656,-1.905142 0.27492,-1.061092 0.35209,-2.286171 l 1.0225,-0.125401 0.0772,0.0048 q -0.0434,0.458198 -0.082,0.974275 -0.0338,0.511253 -0.0627,1.02733 -0.0289,0.511253 -0.0434,1.003214 -0.0145,0.491961 -0.0145,0.906751 0,0.786173 0.0916,1.28778 0.0916,0.496783 0.23634,0.786172 0.14469,0.284566 0.32797,0.395498 0.1881,0.106109 0.37621,0.106109 0.11093,0 0.21704,-0.02894 0.11093,-0.02894 0.20739,-0.06752 0.0965,-0.04341 0.17364,-0.09164 0.082,-0.04823 0.13987,-0.08682 l 0.15916,0.221865 q -0.13987,0.144694 -0.31833,0.274919 -0.17845,0.125402 -0.3762,0.217041 -0.19775,0.09646 -0.41479,0.149518 -0.21704,0.05305 -0.43891,0.05305 -0.27974,0 -0.54501,-0.110932 -0.26045,-0.110932 -0.46303,-0.371382 -0.20257,-0.26045 -0.32797,-0.694533 -0.12058,-0.434083 -0.12058,-1.080384 0,-0.207395 0.01,-0.419614 0.01,-0.212218 0.0289,-0.448552 0.0193,-0.236334 0.0482,-0.50643 0.0338,-0.27492 0.0772,-0.602894 l -0.0531,-0.0096 q -0.32797,1.210609 -0.71382,2.030544 -0.38103,0.819935 -0.78617,1.321542 -0.40033,0.501607 -0.80547,0.713825 -0.40514,0.217042 -0.7717,0.217042 -0.27492,0 -0.53055,-0.09646 -0.2508,-0.09164 -0.44855,-0.303858 -0.19775,-0.217042 -0.31833,-0.569132 -0.11575,-0.352089 -0.11575,-0.868166 0,-0.33762 0.0386,-0.781349 0.0386,-0.448552 0.082,-0.950159 0.0482,-0.506431 0.0868,-1.0418 0.0386,-0.540192 0.0386,-1.065915 0,-0.212218 -0.0145,-0.366559 -0.0145,-0.15434 -0.0627,-0.255626 -0.0482,-0.101286 -0.1447,-0.149518 -0.0916,-0.04823 -0.25563,-0.04823 -0.16398,0 -0.42925,0.04823 -0.26045,0.04823 -0.54984,0.130225 l -0.0724,-0.347266 q 0.3955,-0.139871 0.73312,-0.241157 0.34244,-0.10611 0.60771,-0.173634 0.2701,-0.06752 0.45338,-0.101286 0.1881,-0.03376 0.27492,-0.03376 0.17363,0 0.28456,0.0627 0.11094,0.0627 0.17846,0.18328 0.0675,0.120578 0.0916,0.289388 0.0289,0.16881 0.0289,0.385852 z"
         style="font-family:Gabriola;-inkscape-font-specification:'Gabriola, Normal';fill:#c91e2e"
         id="path1603" />
      <path
         d="m 110.16807,57.930579 q 0.0338,0.366559 0.19293,0.631832 0.16398,0.265273 0.40032,0.434083 0.23633,0.16881 0.5209,0.250803 0.28938,0.08199 0.57395,0.08199 0.26527,0 0.51125,-0.07235 0.24598,-0.07235 0.43409,-0.207395 0.1881,-0.135048 0.29903,-0.332797 0.11576,-0.197749 0.11576,-0.443729 0,-0.255627 -0.12058,-0.448552 -0.12058,-0.192926 -0.32315,-0.35209 -0.20257,-0.159164 -0.47267,-0.294212 -0.26527,-0.135048 -0.55466,-0.274919 -0.25563,-0.120579 -0.51608,-0.241157 -0.25563,-0.125402 -0.49678,-0.270096 -0.24116,-0.144695 -0.45338,-0.313505 -0.20739,-0.16881 -0.36656,-0.371382 -0.15434,-0.207395 -0.24598,-0.458199 -0.0868,-0.255626 -0.0868,-0.564308 0,-0.332797 0.11575,-0.612539 0.11576,-0.279742 0.31351,-0.501607 0.20257,-0.226688 0.46302,-0.395498 0.26527,-0.16881 0.56431,-0.279742 0.29903,-0.115756 0.61253,-0.16881 0.31833,-0.05788 0.61737,-0.05788 0.38585,0 0.72829,0.08682 0.34727,0.08199 0.6029,0.24598 0.26044,0.159164 0.40996,0.390675 0.15434,0.231511 0.15434,0.520899 0,0.110933 -0.0386,0.241158 -0.0386,0.130224 -0.13023,0.24598 -0.0916,0.110932 -0.24115,0.188103 -0.14952,0.07717 -0.36656,0.08199 -0.20258,0 -0.42444,-0.0627 l -0.0145,-0.04823 q 0.0675,-0.154341 0.0965,-0.284566 0.0289,-0.130225 0.0289,-0.241157 -0.005,-0.221865 -0.11575,-0.371382 -0.10611,-0.154341 -0.2701,-0.250804 -0.16399,-0.09646 -0.36656,-0.139871 -0.19775,-0.04341 -0.39067,-0.04341 -0.34245,0 -0.61254,0.09164 -0.2701,0.09164 -0.4582,0.24598 -0.18328,0.149517 -0.28457,0.342443 -0.0965,0.192926 -0.0965,0.400321 0,0.265273 0.13987,0.477491 0.13987,0.207396 0.37138,0.385852 0.23151,0.173633 0.53055,0.327974 0.30386,0.15434 0.63183,0.308681 0.36656,0.173633 0.7283,0.361736 0.36173,0.183279 0.6463,0.419614 0.28456,0.236334 0.4582,0.545015 0.17845,0.303858 0.17845,0.718648 0,0.496784 -0.22186,0.882636 -0.21704,0.385851 -0.5836,0.651124 -0.36656,0.265273 -0.84405,0.400321 -0.47267,0.139872 -0.98392,0.139872 -0.25563,0 -0.53055,-0.03859 -0.2701,-0.03859 -0.52572,-0.115755 -0.25563,-0.07717 -0.48714,-0.188103 -0.22669,-0.115755 -0.40032,-0.26045 -0.16881,-0.149517 -0.2701,-0.327973 -0.0965,-0.18328 -0.0965,-0.400321 0,-0.188103 0.0772,-0.318328 0.082,-0.130225 0.21222,-0.212218 0.13022,-0.08199 0.28939,-0.120579 0.16398,-0.04341 0.33279,-0.04823 z"
         style="font-family:Gabriola;-inkscape-font-specification:'Gabriola, Normal';fill:#c91e2e"
         id="path1605" />
      <path
         d="m 115.88832,57.930579 q 0.0338,0.366559 0.19292,0.631832 0.16399,0.265273 0.40033,0.434083 0.23633,0.16881 0.52089,0.250803 0.28939,0.08199 0.57396,0.08199 0.26527,0 0.51125,-0.07235 0.24598,-0.07235 0.43409,-0.207395 0.1881,-0.135048 0.29903,-0.332797 0.11576,-0.197749 0.11576,-0.443729 0,-0.255627 -0.12058,-0.448552 -0.12058,-0.192926 -0.32315,-0.35209 -0.20258,-0.159164 -0.47267,-0.294212 -0.26527,-0.135048 -0.55466,-0.274919 -0.25563,-0.120579 -0.51608,-0.241157 -0.25563,-0.125402 -0.49678,-0.270096 -0.24116,-0.144695 -0.45338,-0.313505 -0.20739,-0.16881 -0.36656,-0.371382 -0.15434,-0.207395 -0.24598,-0.458199 -0.0868,-0.255626 -0.0868,-0.564308 0,-0.332797 0.11576,-0.612539 0.11576,-0.279742 0.3135,-0.501607 0.20258,-0.226688 0.46303,-0.395498 0.26527,-0.16881 0.5643,-0.279742 0.29904,-0.115756 0.61254,-0.16881 0.31833,-0.05788 0.61737,-0.05788 0.38585,0 0.72829,0.08682 0.34727,0.08199 0.60289,0.24598 0.26045,0.159164 0.40997,0.390675 0.15434,0.231511 0.15434,0.520899 0,0.110933 -0.0386,0.241158 -0.0386,0.130224 -0.13023,0.24598 -0.0916,0.110932 -0.24116,0.188103 -0.14951,0.07717 -0.36655,0.08199 -0.20258,0 -0.42444,-0.0627 l -0.0145,-0.04823 q 0.0675,-0.154341 0.0965,-0.284566 0.0289,-0.130225 0.0289,-0.241157 -0.005,-0.221865 -0.11575,-0.371382 -0.10611,-0.154341 -0.2701,-0.250804 -0.16399,-0.09646 -0.36656,-0.139871 -0.19775,-0.04341 -0.39067,-0.04341 -0.34245,0 -0.61254,0.09164 -0.2701,0.09164 -0.4582,0.24598 -0.18328,0.149517 -0.28457,0.342443 -0.0965,0.192926 -0.0965,0.400321 0,0.265273 0.13987,0.477491 0.13987,0.207396 0.37138,0.385852 0.23151,0.173633 0.53055,0.327974 0.30386,0.15434 0.63183,0.308681 0.36656,0.173633 0.7283,0.361736 0.36173,0.183279 0.6463,0.419614 0.28456,0.236334 0.4582,0.545015 0.17845,0.303858 0.17845,0.718648 0,0.496784 -0.22186,0.882636 -0.21704,0.385851 -0.5836,0.651124 -0.36656,0.265273 -0.84405,0.400321 -0.47267,0.139872 -0.98392,0.139872 -0.25563,0 -0.53055,-0.03859 -0.2701,-0.03859 -0.52572,-0.115755 -0.25563,-0.07717 -0.48714,-0.188103 -0.22669,-0.115755 -0.40032,-0.26045 -0.16881,-0.149517 -0.2701,-0.327973 -0.0965,-0.18328 -0.0965,-0.400321 0,-0.188103 0.0772,-0.318328 0.082,-0.130225 0.21222,-0.212218 0.13022,-0.08199 0.28939,-0.120579 0.16398,-0.04341 0.33279,-0.04823 z"
         style="font-family:Gabriola;-inkscape-font-specification:'Gabriola, Normal';fill:#c91e2e"
         id="path1607" />
      <path
         d="m 122.38027,50.705508 q -0.16881,0 -0.29903,-0.06752 -0.13023,-0.07235 -0.22186,-0.183279 -0.0916,-0.115756 -0.13988,-0.26045 -0.0482,-0.149518 -0.0482,-0.303858 0,-0.217042 0.0724,-0.381029 0.0723,-0.16881 0.1881,-0.279742 0.11576,-0.115756 0.25563,-0.16881 0.13987,-0.05788 0.27492,-0.05788 0.16399,0 0.29421,0.0627 0.13022,0.05788 0.22186,0.163987 0.0965,0.106109 0.1447,0.24598 0.053,0.135048 0.053,0.294212 0,0.16881 -0.0579,0.33762 -0.0579,0.163987 -0.16399,0.299035 -0.10129,0.135048 -0.2508,0.217042 -0.1447,0.08199 -0.32316,0.08199 z m 0.41962,2.180062 q -0.082,0.549838 -0.13987,1.1045 -0.0579,0.549838 -0.0965,1.065915 -0.0338,0.516076 -0.0531,0.979098 -0.0145,0.458199 -0.0145,0.829581 0,0.501607 0.0145,0.863343 0.0145,0.356912 0.0482,0.602893 0.0338,0.24598 0.082,0.395498 0.0531,0.144694 0.12541,0.226687 0.0772,0.07717 0.17363,0.101286 0.10129,0.02412 0.22669,0.02412 0.23151,0 0.49678,-0.06752 0.2701,-0.07235 0.54502,-0.197749 l 0.0916,0.250804 q -0.17364,0.139871 -0.43891,0.284565 -0.26045,0.144695 -0.54984,0.265273 -0.28939,0.120579 -0.56913,0.192926 -0.27492,0.07717 -0.47749,0.07717 -0.13505,0 -0.24598,-0.02412 -0.11093,-0.01929 -0.20257,-0.106109 -0.0868,-0.08682 -0.15917,-0.255626 -0.0675,-0.16881 -0.11575,-0.458199 -0.0434,-0.289389 -0.0675,-0.723472 -0.0241,-0.434083 -0.0241,-1.051445 0,-0.361736 0.005,-0.815112 0.01,-0.458198 0.0241,-0.979098 0.0145,-0.525723 0.0386,-1.1045 0.0241,-0.583601 0.0627,-1.200963 0.01,-0.135048 0.0724,-0.217042 0.0627,-0.08682 0.15434,-0.130225 0.0916,-0.04823 0.19293,-0.0627 0.10611,-0.01929 0.19292,-0.01929 0.32315,0 0.60772,0.149518 z"
         style="font-family:Gabriola;-inkscape-font-specification:'Gabriola, Normal';fill:#c91e2e"
         id="path1609" />
      <path
         d="m 128.72753,54.713541 q 0,-0.381028 -0.1254,-0.660771 -0.1254,-0.279742 -0.32797,-0.458198 -0.20257,-0.178457 -0.4582,-0.265273 -0.25563,-0.08682 -0.51125,-0.08682 -0.34245,0 -0.57878,0.07235 -0.23634,0.07235 -0.38585,0.197749 -0.1447,0.125402 -0.21222,0.299035 -0.0627,0.16881 -0.0627,0.366559 0,0.231511 0.082,0.467845 0.0868,0.231511 0.2508,0.453376 l -0.0193,0.05305 q -0.27492,0.135048 -0.55466,0.135048 -0.16399,0 -0.30868,-0.04823 -0.13987,-0.05306 -0.24598,-0.149517 -0.10129,-0.09646 -0.16399,-0.236335 -0.0579,-0.139871 -0.0579,-0.313504 0,-0.284565 0.13505,-0.535369 0.13987,-0.250803 0.36656,-0.458199 0.22669,-0.207395 0.52572,-0.371382 0.29904,-0.163987 0.61737,-0.274919 0.31832,-0.115756 0.63665,-0.173633 0.32315,-0.0627 0.59807,-0.0627 0.50643,0 0.86334,0.135048 0.36174,0.135048 0.5836,0.395498 0.22669,0.255626 0.32798,0.622185 0.10611,0.366559 0.10611,0.829581 0,0.318328 -0.0289,0.699356 -0.0241,0.381029 -0.0579,0.800642 -0.0338,0.414791 -0.0627,0.85852 -0.0241,0.443729 -0.0241,0.882635 0,0.694533 0.25563,1.046623 0.26045,0.347266 0.68006,0.347266 0.37139,0 0.82958,-0.274919 l 0.13988,0.207395 q -0.32315,0.323151 -0.70418,0.491961 -0.38103,0.16881 -0.80065,0.16881 -0.3135,0 -0.57877,-0.106109 -0.26528,-0.106109 -0.4582,-0.313505 -0.19293,-0.212218 -0.29904,-0.530546 -0.10611,-0.318327 -0.10611,-0.737941 0,-0.125401 0.005,-0.250803 0.01,-0.125402 0.0338,-0.265273 h -0.0289 q -0.20739,0.41479 -0.48231,0.819934 -0.2701,0.400321 -0.59807,0.718649 -0.32315,0.313504 -0.69454,0.50643 -0.36656,0.197749 -0.7717,0.197749 -0.3328,0 -0.60772,-0.115755 -0.27491,-0.115756 -0.47266,-0.318328 -0.19293,-0.202572 -0.30386,-0.477491 -0.10611,-0.279743 -0.10611,-0.607716 0,-0.424437 0.15434,-0.771704 0.15916,-0.347266 0.43408,-0.622185 0.27974,-0.274919 0.6656,-0.472668 0.38585,-0.202572 0.83922,-0.332797 0.45338,-0.135048 0.95981,-0.197749 0.50643,-0.06752 1.03215,-0.06752 0.0338,-0.303858 0.0531,-0.588424 0.0241,-0.284565 0.0241,-0.627009 z m -2.96141,3.313501 q 0,0.188102 0.0386,0.361735 0.0434,0.16881 0.13022,0.299035 0.0916,0.130225 0.22669,0.207396 0.13987,0.07235 0.3328,0.07235 0.21704,0 0.44855,-0.101286 0.23151,-0.101286 0.45337,-0.279743 0.22669,-0.178456 0.42926,-0.424436 0.2074,-0.250804 0.37139,-0.545016 0.16398,-0.294212 0.27009,-0.617362 0.11094,-0.327974 0.1447,-0.670417 -0.35692,0.0096 -0.70901,0.04823 -0.35208,0.03376 -0.67041,0.110932 -0.31351,0.07717 -0.5836,0.202573 -0.2701,0.125401 -0.46785,0.313504 -0.19292,0.183279 -0.30386,0.438906 -0.11093,0.250804 -0.11093,0.583601 z"
         style="font-family:Gabriola;-inkscape-font-specification:'Gabriola, Normal';fill:#c91e2e"
         id="path1611" />
    </g>
  </g>
</svg>
