<?xml version="1.0" encoding="UTF-8" standalone="no"?>
<!-- Created with Inkscape (http://www.inkscape.org/) -->

<svg
   version="1.1"
   id="svg2"
   width="6029.3335"
   height="2675.3467"
   viewBox="0 0 6029.3335 2675.3467"
   sodipodi:docname="social_media_icons.svg"
   inkscape:version="1.2.2 (732a01da63, 2022-12-09)"
   xmlns:inkscape="http://www.inkscape.org/namespaces/inkscape"
   xmlns:sodipodi="http://sodipodi.sourceforge.net/DTD/sodipodi-0.dtd"
   xmlns="http://www.w3.org/2000/svg"
   xmlns:svg="http://www.w3.org/2000/svg">
  <defs
     id="defs6" />
  <sodipodi:namedview
     id="namedview4"
     pagecolor="#ffffff"
     bordercolor="#000000"
     borderopacity="0.25"
     inkscape:showpageshadow="2"
     inkscape:pageopacity="0.0"
     inkscape:pagecheckerboard="0"
     inkscape:deskcolor="#d1d1d1"
     showgrid="false"
     inkscape:zoom="0.15809043"
     inkscape:cx="5016.1164"
     inkscape:cy="537.66695"
     inkscape:window-width="1920"
     inkscape:window-height="1017"
     inkscape:window-x="1912"
     inkscape:window-y="-8"
     inkscape:window-maximized="1"
     inkscape:current-layer="g8" />
  <g
     id="g8"
     inkscape:groupmode="layer"
     inkscape:label="ink_ext_XXXXXX"
     transform="matrix(1.3333333,0,0,-1.3333333,0,2675.3467)">
    <path
       d="M 4522,0 H 0 V 2006.51 H 4522 V 0"
       style="fill:#c1c1c1;fill-opacity:1;fill-rule:nonzero;stroke:none;stroke-width:0.1"
       id="path12"
       sodipodi:insensitive="true" />
    <g
       id="g1191"
       style="fill:#ffffff">
      <path
         d="m 3328.49,1772.34 c 5.26,0 9.53,4.27 9.53,9.53 0,5.26 -4.27,9.53 -9.53,9.53 -5.26,0 -9.53,-4.27 -9.53,-9.53 0,-5.26 4.27,-9.53 9.53,-9.53"
         style="fill:#ffffff;fill-opacity:1;fill-rule:nonzero;stroke:none;stroke-width:0.1"
         id="path266" />
      <path
         d="m 3287.97,1765.87 c 13.67,-0.01 24.75,-11.09 24.77,-24.77 0,-13.68 -11.09,-24.77 -24.77,-24.77 -13.69,0 -24.78,11.09 -24.78,24.77 0,13.68 11.09,24.77 24.78,24.77 z m 0,-62.88 c 21.04,0 38.11,17.06 38.11,38.11 0,21.05 -17.07,38.11 -38.11,38.11 -21.05,0 -38.12,-17.06 -38.12,-38.11 0,-21.05 17.07,-38.11 38.12,-38.11"
         style="fill:#ffffff;fill-opacity:1;fill-rule:nonzero;stroke:none;stroke-width:0.1"
         id="path268" />
      <path
         d="m 3225.08,1779.21 c 0.02,13.68 11.1,24.76 24.77,24.78 h 76.23 c 13.67,-0.02 24.76,-11.1 24.77,-24.78 v -76.22 c -0.01,-13.68 -11.1,-24.76 -24.77,-24.77 h -76.23 c -13.67,0.01 -24.75,11.09 -24.77,24.77 z m 24.77,-114.33 h 76.23 c 21.05,0 38.11,17.06 38.11,38.11 v 76.22 c 0,21.05 -17.06,38.12 -38.11,38.12 h -76.23 c -21.05,0 -38.11,-17.07 -38.11,-38.12 v -76.22 c 0,-21.05 17.06,-38.11 38.11,-38.11"
         style="fill:#ffffff;fill-opacity:1;fill-rule:nonzero;stroke:none;stroke-width:0.1"
         id="path270" />
      <path
         d="m 3287.97,1868.8 c -70.42,0 -127.7,-57.29 -127.7,-127.7 0,-70.41 57.28,-127.7 127.7,-127.7 70.41,0 127.69,57.29 127.69,127.7 0,70.41 -57.28,127.7 -127.69,127.7 z m 0,-266.79 c -37.16,0 -72.08,14.47 -98.35,40.74 -26.28,26.27 -40.74,61.2 -40.74,98.35 0,37.15 14.46,72.08 40.74,98.35 26.27,26.27 61.19,40.74 98.35,40.74 37.15,0 72.08,-14.47 98.35,-40.74 26.27,-26.27 40.74,-61.2 40.74,-98.35 0,-37.15 -14.47,-72.08 -40.74,-98.35 -26.27,-26.27 -61.2,-40.74 -98.35,-40.74"
         style="fill:#ffffff;fill-opacity:1;fill-rule:nonzero;stroke:none;stroke-width:0.1"
         id="path272" />
    </g>
    <g
       id="g1234"
       style="fill:#ffffff;fill-opacity:1">
      <path
         d="m 3832.06,1238.67 c -3.05,2.58 -3.42,7.13 -0.85,10.18 8.64,10.17 17.82,27.51 22.53,36.96 0.31,0.64 0.48,1.34 0.48,2.04 0,2.53 -2.05,4.58 -4.58,4.58 h -18.68 c -2.71,0 -5.17,-1.56 -6.33,-4 -2.94,-6.18 -8.8,-18.09 -13.61,-25.3 -3.82,-5.73 -7.97,-10.82 -12.81,-14.27 -0.49,-0.34 -1.06,-0.53 -1.65,-0.53 -1.58,0 -2.85,1.28 -2.85,2.85 v 36.12 c 0,2.84 -2.3,5.13 -5.13,5.13 h -26.4 c -0.99,0 -1.95,-0.36 -2.69,-1.01 -1.71,-1.48 -1.9,-4.08 -0.41,-5.79 3.59,-4.14 5.88,-9.44 5.88,-14.74 v -26.82 c 0,-0.68 -0.22,-1.33 -0.64,-1.87 -1.03,-1.3 -2.93,-1.53 -4.24,-0.5 -14.58,11.44 -22.83,34.42 -26.01,45.07 -1.01,3.36 -4.1,5.66 -7.61,5.66 h -17.12 c -0.49,0 -0.98,-0.07 -1.46,-0.2 -2.85,-0.81 -4.51,-3.77 -3.71,-6.62 3.87,-13.63 10.5,-30.43 25.38,-52.1 17.47,-25.45 39.39,-31.64 49.57,-31.64 h 7.82 0.01 c 3.73,0 6.76,3.03 6.75,6.76 v 16.74 c 0.01,0.59 0.13,1.16 0.38,1.69 0.94,2 3.31,2.86 5.31,1.92 10.5,-4.85 20.5,-16.15 25.58,-22.52 2.32,-2.91 5.83,-4.6 9.54,-4.59 h 16.93 c 1.03,0 2.04,0.3 2.91,0.86 2.49,1.6 3.21,4.93 1.6,7.42 -9.47,14.81 -18.26,23.71 -23.89,28.52"
         style="fill:#ffffff;fill-opacity:1;fill-rule:nonzero;stroke:none;stroke-width:0.1"
         id="path206" />
      <path
         d="m 3780.39,1374.85 c -70.42,0 -127.7,-57.29 -127.7,-127.7 0,-70.41 57.28,-127.7 127.7,-127.7 70.41,0 127.7,57.29 127.7,127.7 0,70.41 -57.29,127.7 -127.7,127.7 z m 0,-266.79 c -37.15,0 -72.08,14.47 -98.35,40.74 -26.27,26.27 -40.74,61.2 -40.74,98.35 0,37.15 14.47,72.08 40.74,98.35 26.27,26.27 61.2,40.74 98.35,40.74 37.15,0 72.08,-14.47 98.35,-40.74 26.27,-26.27 40.74,-61.2 40.74,-98.35 0,-37.15 -14.47,-72.08 -40.74,-98.35 -26.27,-26.27 -61.2,-40.74 -98.35,-40.74"
         style="fill:#ffffff;fill-opacity:1;fill-rule:nonzero;stroke:none;stroke-width:0.1"
         id="path290" />
    </g>
    <g
       id="g1230"
       style="fill:#ffffff;fill-opacity:1">
      <path
         d="m 3207.93,1241.26 36.01,-12.1 83.62,52.93 c 0.72,0.45 1.66,0.33 2.23,-0.3 0.65,-0.71 0.6,-1.82 -0.11,-2.47 l -65.39,-59.74 -3.62,-35.11 0.45,-0.49 c 0.01,-0.02 0.02,-0.03 0.03,-0.04 1.07,-1.14 2.86,-1.19 4,-0.12 l 20.88,19.7 34.46,-25.46 c 0.96,-0.71 2.07,-1.21 3.24,-1.45 4.51,-0.95 8.93,1.94 9.88,6.45 l 23.69,113.1 c 0.25,1.21 0.16,2.46 -0.28,3.62 -1.26,3.35 -5,5.04 -8.35,3.78 l -140.91,-53.08 c -1.37,-0.52 -2.44,-1.63 -2.91,-3.02 -0.86,-2.57 0.52,-5.34 3.08,-6.2"
         style="fill:#ffffff;fill-opacity:1;fill-rule:nonzero;stroke:none;stroke-width:0.1"
         id="path292" />
      <path
         d="m 3287.97,1374.85 c -70.42,0 -127.7,-57.29 -127.7,-127.7 0,-70.41 57.28,-127.7 127.7,-127.7 70.41,0 127.69,57.29 127.69,127.7 0,70.41 -57.28,127.7 -127.69,127.7 z m 0,-266.79 c -37.16,0 -72.09,14.47 -98.35,40.74 -26.28,26.27 -40.74,61.2 -40.74,98.35 0,37.15 14.46,72.08 40.74,98.35 26.26,26.27 61.19,40.74 98.35,40.74 37.15,0 72.08,-14.47 98.35,-40.74 26.27,-26.27 40.74,-61.2 40.74,-98.35 0,-37.15 -14.47,-72.08 -40.74,-98.35 -26.27,-26.27 -61.2,-40.74 -98.35,-40.74"
         style="fill:#ffffff;fill-opacity:1;fill-rule:nonzero;stroke:none;stroke-width:0.1"
         id="path294" />
    </g>
    <g
       id="g1749">
      <path
         d="m 3783.8719,1686.8868 -32.2424,0.5897 c -10.4394,0.2055 -20.9048,-0.2047 -31.1395,1.9241 -15.5693,3.1807 -16.6723,18.7759 -17.8265,31.8575 -1.5902,18.3909 -0.9746,37.1157 2.0265,55.3531 1.6943,10.2331 8.3618,16.3393 18.6728,17.0038 34.8074,2.4114 69.8463,2.1257 104.5765,1.0006 3.668,-0.1031 7.3611,-0.6668 10.9779,-1.3084 17.8532,-3.1295 18.2886,-20.8025 19.4459,-35.6798 1.1542,-15.0308 0.6668,-30.1388 -1.5392,-45.0672 -1.7698,-12.3604 -5.1559,-22.7257 -19.4459,-23.7264 -17.9043,-1.3085 -35.3978,-2.3619 -53.3526,-2.0265 0,0.079 -0.1023,0.079 -0.1535,0.079 z m -18.9554,31.293 c 13.4924,7.7469 26.7274,15.3646 40.1428,23.0596 -13.5177,7.7468 -26.7275,15.3646 -40.1428,23.0595 z"
         fill="#ff0000"
         id="path2700"
         style="display:inline;fill:none;stroke:#ffffff;stroke-width:11.25;stroke-linecap:round;stroke-linejoin:round;stroke-dasharray:none;stroke-opacity:1" />
      <g
         id="g3241"
         style="fill:#ffffff"
         transform="translate(492.42)">
        <path
           d="m 3287.97,1868.8 c -70.42,0 -127.7,-57.29 -127.7,-127.7 0,-70.41 57.28,-127.7 127.7,-127.7 70.41,0 127.69,57.29 127.69,127.7 0,70.41 -57.28,127.7 -127.69,127.7 z m 0,-266.79 c -37.16,0 -72.08,14.47 -98.35,40.74 -26.28,26.27 -40.74,61.2 -40.74,98.35 0,37.15 14.46,72.08 40.74,98.35 26.27,26.27 61.19,40.74 98.35,40.74 37.15,0 72.08,-14.47 98.35,-40.74 26.27,-26.27 40.74,-61.2 40.74,-98.35 0,-37.15 -14.47,-72.08 -40.74,-98.35 -26.27,-26.27 -61.2,-40.74 -98.35,-40.74"
           style="fill:#ffffff;fill-opacity:1;fill-rule:nonzero;stroke:none;stroke-width:0.1"
           id="path3239" />
      </g>
    </g>
    <path
       d="m 4208.5019,1710.6273 c -10.8504,1.1413 -20.6158,3.8329 -28.9862,10.4277 -1.0427,0.8173 -2.1137,1.6064 -3.0578,2.5364 -3.6639,3.5229 -4.0443,7.5954 -1.1273,11.7664 2.466,3.5792 6.623,4.5375 10.9631,2.4942 a 16.909798,16.909798 0 0 0 2.3955,-1.4374 c 15.5993,-10.794 37.0325,-11.0899 52.7023,-0.479 1.5501,1.1977 3.1987,2.1701 5.1152,2.6774 a 8.0321539,8.0321539 0 0 0 9.2299,-3.7202 c 2.2969,-3.7624 2.2547,-7.4263 -0.5636,-10.3432 a 42.528141,42.528141 0 0 0 -15.3175,-9.9767 c -5.4675,-2.1419 -11.4704,-3.2129 -17.4029,-3.9316 0.9018,-0.9863 1.3245,-1.4655 1.8881,-2.0291 8.0463,-8.1449 16.1349,-16.2616 24.167,-24.4347 2.7337,-2.7901 3.3115,-6.2425 1.8037,-9.4836 -1.6487,-3.5228 -5.3406,-5.862 -8.9481,-5.6084 a 8.6944543,8.6944543 0 0 0 -5.6648,2.917 c -6.0735,6.158 -12.2596,12.2032 -18.2203,18.474 -1.7332,1.8319 -2.5787,1.4795 -4.1006,-0.099 -6.1157,-6.3412 -12.3301,-12.5837 -18.5866,-18.7981 -2.8043,-2.776 -6.144,-3.2833 -9.3991,-1.691 a 9.5822186,9.5822186 0 0 0 -5.4957,8.8214 c 0.1268,2.4096 1.2965,4.2697 2.9592,5.9183 l 23.871,24.0824 c 0.5214,0.5355 1.0146,1.0992 1.7755,1.9165 z"
       id="path1759"
       style="fill:#ffffff;stroke-width:14.0915" />
    <path
       d="m 4214.9559,1738.7539 a 35.27102,35.27102 0 0 0 -34.9611,35.3132 35.313294,35.313294 0 0 0 35.3838,35.1443 35.27102,35.27102 0 0 0 35.0737,-35.6797 c -0.098,-19.249 -16.022,-34.8482 -35.4964,-34.7778 z m 17.5298,35.2569 a 17.163445,17.163445 0 0 1 -17.2481,17.2058 17.191628,17.191628 0 0 1 -17.2761,-17.403 17.163445,17.163445 0 0 1 17.3748,-17.0789 17.135262,17.135262 0 0 1 17.1494,17.2761 z"
       id="path1766"
       style="fill:#ffffff;stroke-width:14.0915" />
    <g
       id="g1744"
       style="fill:#ffffff"
       transform="translate(926.507)">
      <path
         d="m 3287.97,1868.8 c -70.42,0 -127.7,-57.29 -127.7,-127.7 0,-70.41 57.28,-127.7 127.7,-127.7 70.41,0 127.69,57.29 127.69,127.7 0,70.41 -57.28,127.7 -127.69,127.7 z m 0,-266.79 c -37.16,0 -72.08,14.47 -98.35,40.74 -26.28,26.27 -40.74,61.2 -40.74,98.35 0,37.15 14.46,72.08 40.74,98.35 26.27,26.27 61.19,40.74 98.35,40.74 37.15,0 72.08,-14.47 98.35,-40.74 26.27,-26.27 40.74,-61.2 40.74,-98.35 0,-37.15 -14.47,-72.08 -40.74,-98.35 -26.27,-26.27 -61.2,-40.74 -98.35,-40.74"
         style="fill:#ffffff;fill-opacity:1;fill-rule:nonzero;stroke:none;stroke-width:0.1"
         id="path1742" />
    </g>
  </g>
</svg>
