<?xml version="1.0" encoding="UTF-8"?>
<svg width="0" height="0" version="1.1" xmlns="http://www.w3.org/2000/svg">

   <symbol id="telegram" viewBox="0 0 370.91 370.91">
      <g transform="matrix(1.3333 0 0 -1.3333 -2402.1 2019.1)">
         <g transform="translate(-1347.3 128.09)" style="fill:#fff">
            <path
               d="m3207.9 1241.3 36.01-12.1 83.62 52.93c0.72 0.45 1.66 0.33 2.23-0.3 0.65-0.71 0.6-1.82-0.11-2.47l-65.39-59.74-3.62-35.11 0.45-0.49c0.01-0.02 0.02-0.03 0.03-0.04 1.07-1.14 2.86-1.19 4-0.12l20.88 19.7 34.46-25.46c0.96-0.71 2.07-1.21 3.24-1.45 4.51-0.95 8.93 1.94 9.88 6.45l23.69 113.1c0.25 1.21 0.16 2.46-0.28 3.62-1.26 3.35-5 5.04-8.35 3.78l-140.91-53.08c-1.37-0.52-2.44-1.63-2.91-3.02-0.86-2.57 0.52-5.34 3.08-6.2"
               style="fill:#fff" />
            <path
               d="m3288 1374.8c-70.42 0-127.7-57.29-127.7-127.7s57.28-127.7 127.7-127.7c70.41 0 127.69 57.29 127.69 127.7s-57.28 127.7-127.69 127.7zm0-266.79c-37.16 0-72.09 14.47-98.35 40.74-26.28 26.27-40.74 61.2-40.74 98.35s14.46 72.08 40.74 98.35c26.26 26.27 61.19 40.74 98.35 40.74 37.15 0 72.08-14.47 98.35-40.74s40.74-61.2 40.74-98.35-14.47-72.08-40.74-98.35-61.2-40.74-98.35-40.74"
               style="fill:#fff" />
         </g>
      </g>
   </symbol>

   <symbol id="vk" viewBox="0 0 370.91 370.91">
      <g transform="matrix(1.3333 0 0 -1.3333 -4855.1 1848.3)">
         <g style="fill:#fff">
            <path
               d="m3832.1 1238.7c-3.05 2.58-3.42 7.13-0.85 10.18 8.64 10.17 17.82 27.51 22.53 36.96 0.31 0.64 0.48 1.34 0.48 2.04 0 2.53-2.05 4.58-4.58 4.58h-18.68c-2.71 0-5.17-1.56-6.33-4-2.94-6.18-8.8-18.09-13.61-25.3-3.82-5.73-7.97-10.82-12.81-14.27-0.49-0.34-1.06-0.53-1.65-0.53-1.58 0-2.85 1.28-2.85 2.85v36.12c0 2.84-2.3 5.13-5.13 5.13h-26.4c-0.99 0-1.95-0.36-2.69-1.01-1.71-1.48-1.9-4.08-0.41-5.79 3.59-4.14 5.88-9.44 5.88-14.74v-26.82c0-0.68-0.22-1.33-0.64-1.87-1.03-1.3-2.93-1.53-4.24-0.5-14.58 11.44-22.83 34.42-26.01 45.07-1.01 3.36-4.1 5.66-7.61 5.66h-17.12c-0.49 0-0.98-0.07-1.46-0.2-2.85-0.81-4.51-3.77-3.71-6.62 3.87-13.63 10.5-30.43 25.38-52.1 17.47-25.45 39.39-31.64 49.57-31.64h7.83c3.73 0 6.76 3.03 6.75 6.76v16.74c0.01 0.59 0.13 1.16 0.38 1.69 0.94 2 3.31 2.86 5.31 1.92 10.5-4.85 20.5-16.15 25.58-22.52 2.32-2.91 5.83-4.6 9.54-4.59h16.93c1.03 0 2.04 0.3 2.91 0.86 2.49 1.6 3.21 4.93 1.6 7.42-9.47 14.81-18.26 23.71-23.89 28.52"
               style="fill:#fff" />
            <path
               d="m3780.4 1374.8c-70.42 0-127.7-57.29-127.7-127.7s57.28-127.7 127.7-127.7c70.41 0 127.7 57.29 127.7 127.7s-57.29 127.7-127.7 127.7zm0-266.79c-37.15 0-72.08 14.47-98.35 40.74s-40.74 61.2-40.74 98.35 14.47 72.08 40.74 98.35 61.2 40.74 98.35 40.74 72.08-14.47 98.35-40.74 40.74-61.2 40.74-98.35-14.47-72.08-40.74-98.35-61.2-40.74-98.35-40.74"
               style="fill:#fff" />
         </g>
      </g>
   </symbol>

   <symbol id="youtube" viewBox="0 0 370.91 370.91">
      <g transform="matrix(1.3333 0 0 -1.3333 -4855.1 2506.9)">
         <path
            d="m3783.9 1686.9-32.242 0.5897c-10.439 0.2055-20.905-0.2047-31.14 1.9241-15.569 3.1807-16.672 18.776-17.826 31.858-1.5902 18.391-0.9746 37.116 2.0265 55.353 1.6943 10.233 8.3618 16.339 18.673 17.004 34.807 2.4114 69.846 2.1257 104.58 1.0006 3.668-0.1031 7.3611-0.6668 10.978-1.3084 17.853-3.1295 18.289-20.802 19.446-35.68 1.1542-15.031 0.6668-30.139-1.5392-45.067-1.7698-12.36-5.1559-22.726-19.446-23.726-17.904-1.3085-35.398-2.3619-53.353-2.0265 0 0.079-0.1023 0.079-0.1535 0.079zm-18.955 31.293c13.492 7.7469 26.727 15.365 40.143 23.06-13.518 7.7468-26.728 15.365-40.143 23.06z"
            fill="#f00"
            style="fill:none;stroke-linecap:round;stroke-linejoin:round;stroke-width:11.25;stroke:#fff" />
         <g transform="translate(492.42)" style="fill:#fff">
            <path
               d="m3288 1868.8c-70.42 0-127.7-57.29-127.7-127.7s57.28-127.7 127.7-127.7c70.41 0 127.69 57.29 127.69 127.7s-57.28 127.7-127.69 127.7zm0-266.79c-37.16 0-72.08 14.47-98.35 40.74-26.28 26.27-40.74 61.2-40.74 98.35s14.46 72.08 40.74 98.35c26.27 26.27 61.19 40.74 98.35 40.74 37.15 0 72.08-14.47 98.35-40.74s40.74-61.2 40.74-98.35-14.47-72.08-40.74-98.35-61.2-40.74-98.35-40.74"
               style="fill:#fff" />
         </g>
      </g>
   </symbol>

   <symbol id="instagram" viewBox="0 0 370.91 370.91">
      <g transform="matrix(1.3333 0 0 -1.3333 -4198.5 2506.9)">
         <g style="fill:#fff">
            <path
               d="m3328.5 1772.3c5.26 0 9.53 4.27 9.53 9.53s-4.27 9.53-9.53 9.53-9.53-4.27-9.53-9.53 4.27-9.53 9.53-9.53"
               style="fill:#fff" />
            <path
               d="m3288 1765.9c13.67-0.01 24.75-11.09 24.77-24.77 0-13.68-11.09-24.77-24.77-24.77-13.69 0-24.78 11.09-24.78 24.77s11.09 24.77 24.78 24.77zm0-62.88c21.04 0 38.11 17.06 38.11 38.11s-17.07 38.11-38.11 38.11c-21.05 0-38.12-17.06-38.12-38.11s17.07-38.11 38.12-38.11"
               style="fill:#fff" />
            <path
               d="m3225.1 1779.2c0.02 13.68 11.1 24.76 24.77 24.78h76.23c13.67-0.02 24.76-11.1 24.77-24.78v-76.22c-0.01-13.68-11.1-24.76-24.77-24.77h-76.23c-13.67 0.01-24.75 11.09-24.77 24.77zm24.77-114.33h76.23c21.05 0 38.11 17.06 38.11 38.11v76.22c0 21.05-17.06 38.12-38.11 38.12h-76.23c-21.05 0-38.11-17.07-38.11-38.12v-76.22c0-21.05 17.06-38.11 38.11-38.11"
               style="fill:#fff" />
            <path
               d="m3288 1868.8c-70.42 0-127.7-57.29-127.7-127.7s57.28-127.7 127.7-127.7c70.41 0 127.69 57.29 127.69 127.7s-57.28 127.7-127.69 127.7zm0-266.79c-37.16 0-72.08 14.47-98.35 40.74-26.28 26.27-40.74 61.2-40.74 98.35s14.46 72.08 40.74 98.35c26.27 26.27 61.19 40.74 98.35 40.74 37.15 0 72.08-14.47 98.35-40.74s40.74-61.2 40.74-98.35-14.47-72.08-40.74-98.35-61.2-40.74-98.35-40.74"
               style="fill:#fff" />
         </g>
      </g>
   </symbol>

   <symbol id="ok" viewBox="0 0 370.91 370.91">
      <g transform="matrix(1.3333 0 0 -1.3333 -5433.8 2506.9)">
         <path
            d="m4208.5 1710.6c-10.85 1.1413-20.616 3.8329-28.986 10.428-1.0427 0.8173-2.1137 1.6064-3.0578 2.5364-3.6639 3.5229-4.0443 7.5954-1.1273 11.766 2.466 3.5792 6.623 4.5375 10.963 2.4942a16.91 16.91 0 0 0 2.3955-1.4374c15.599-10.794 37.032-11.09 52.702-0.479 1.5501 1.1977 3.1987 2.1701 5.1152 2.6774a8.0322 8.0322 0 0 0 9.2299-3.7202c2.2969-3.7624 2.2547-7.4263-0.5636-10.343a42.528 42.528 0 0 0-15.318-9.9767c-5.4675-2.1419-11.47-3.2129-17.403-3.9316 0.9018-0.9863 1.3245-1.4655 1.8881-2.0291 8.0463-8.1449 16.135-16.262 24.167-24.435 2.7337-2.7901 3.3115-6.2425 1.8037-9.4836-1.6487-3.5228-5.3406-5.862-8.9481-5.6084a8.6945 8.6945 0 0 0-5.6648 2.917c-6.0735 6.158-12.26 12.203-18.22 18.474-1.7332 1.8319-2.5787 1.4795-4.1006-0.099-6.1157-6.3412-12.33-12.584-18.587-18.798-2.8043-2.776-6.144-3.2833-9.3991-1.691a9.5822 9.5822 0 0 0-5.4957 8.8214c0.1268 2.4096 1.2965 4.2697 2.9592 5.9183l23.871 24.082c0.5214 0.5355 1.0146 1.0992 1.7755 1.9165z"
            style="fill:#fff;stroke-width:14.092" />
         <path
            d="m4215 1738.8a35.271 35.271 0 0 0-34.961 35.313 35.313 35.313 0 0 0 35.384 35.144 35.271 35.271 0 0 0 35.074-35.68c-0.098-19.249-16.022-34.848-35.496-34.778zm17.53 35.257a17.163 17.163 0 0 1-17.248 17.206 17.192 17.192 0 0 1-17.276-17.403 17.163 17.163 0 0 1 17.375-17.079 17.135 17.135 0 0 1 17.149 17.276z"
            style="fill:#fff;stroke-width:14.092" />
         <g transform="translate(926.51)" style="fill:#fff">
            <path
               d="m3288 1868.8c-70.42 0-127.7-57.29-127.7-127.7s57.28-127.7 127.7-127.7c70.41 0 127.69 57.29 127.69 127.7s-57.28 127.7-127.69 127.7zm0-266.79c-37.16 0-72.08 14.47-98.35 40.74-26.28 26.27-40.74 61.2-40.74 98.35s14.46 72.08 40.74 98.35c26.27 26.27 61.19 40.74 98.35 40.74 37.15 0 72.08-14.47 98.35-40.74s40.74-61.2 40.74-98.35-14.47-72.08-40.74-98.35-61.2-40.74-98.35-40.74"
               style="fill:#fff" />
         </g>
      </g>
   </symbol>

   <symbol id="search" viewBox="0 0 24 24">
      <g clip-path="url(#clip0_15_152)" style="fill:none">
         <circle cx="10.5" cy="10.5" r="6.5" stroke="#fff" stroke-linejoin="round" style="fill:none"/>
         <path d="m19.646 20.354c0.1953 0.1952 0.5119 0.1952 0.7072 0 0.1952-0.1953 0.1952-0.5119 0-0.7072zm0.7072-0.7072-5-5-0.7072 0.7072 5 5z" fill="#000" style="fill:#000"/>
        </g>
        <defs>
         <clipPath id="clip0_15_152">
          <rect width="24" height="24" fill="#fff"/>
         </clipPath>
        </defs>
   </symbol>


</svg>